<?xml version="1.0" encoding="utf-8"?>
<!-- Svg Vector Icons : http://www.onlinewebfonts.com/icon -->
<!DOCTYPE svg PUBLIC "-//W3C//DTD SVG 1.1//EN" "http://www.w3.org/Graphics/SVG/1.1/DTD/svg11.dtd">
<svg version="1.1" xmlns="http://www.w3.org/2000/svg" xmlns:xlink="http://www.w3.org/1999/xlink" x="0px" y="0px" viewBox="0 0 256 256" enable-background="new 0 0 256 256" xml:space="preserve">
<metadata> Svg Vector Icons : http://www.onlinewebfonts.com/icon </metadata>
<g><g><g><path fill="#000000" d="M113.9,4.1c-0.8,0.5-8.7,15.7-29.3,56.7l-28.1,56.1l-17.9,18c-20.4,20.5-23,23.8-26.1,32.7c-3.4,10-3.3,22.5,0.4,32.4c2.6,7,6.1,11.9,13.5,19c10.2,9.8,20.1,14,33.4,14c6.5,0,11.7-0.9,17.1-3c7.2-2.8,10.2-5,20.6-15.3c5.3-5.3,9.9-9.6,10.2-9.6c0.3,0,11.2,10.7,24.3,23.8c22.6,22.6,23.9,23.8,25.6,23.8s2.5-0.7,13.5-11.7c10.7-10.7,11.7-11.9,11.7-13.4c0-1.6-1.6-3.3-22.5-24.2l-22.5-22.5l53.4-26.7c34-17,53.7-27.1,54.2-27.8c1.1-1.5,1-3.5-0.2-4.8c-1.9-2-125.3-115.6-126.8-116.7C116.5,3.3,115.6,3.2,113.9,4.1z M176.6,69l58.5,53.8l-53.3,26.7c-38.9,19.5-53.6,27-54.3,28c-0.6,0.9-0.8,1.7-0.6,2.7c0.2,0.9,7.5,8.5,23.1,24.2l22.8,22.8l-7.7,7.7l-7.7,7.7l-23.9-23.9c-22.1-22.1-24.1-23.9-25.7-23.9c-1.5,0-2.7,1-12.7,10.9c-6.1,6-12.2,11.7-13.6,12.7c-3.4,2.5-9.3,5.1-13.5,6.1c-4.4,1-12.4,1-16.7,0c-8-1.9-13.3-5.3-21.6-13.8c-5.3-5.4-6.3-6.8-8.4-10.9c-3-6.1-4-10.3-4-17c-0.1-7.7,2.1-14.6,6.7-21.3c0.9-1.3,10-10.8,20.2-21.1l18.6-18.7l7.3-14.7c27-54.2,46.8-92.8,47.3-92.4C117.9,15,144.5,39.4,176.6,69z"/><path fill="#000000" d="M52.4,150.9c-18.1,18.2-18.8,19.1-20.6,25.3c-1.1,4-1.1,10.6,0.2,14.8c1.4,4.5,3.4,7.5,8.5,12.5c6.4,6.3,11.2,8.4,19.6,8.4c5.3,0,9.6-1.2,13.7-3.9c1.7-1.1,9.7-8.7,19.3-18.4c16-16.1,16.4-16.5,16.2-18.3c-0.2-1.7-1.8-3.4-18.1-19.8c-16.9-16.9-18-18-19.7-18C69.7,133.6,68.6,134.7,52.4,150.9z M84.8,186.3c-15.7,15.7-17.6,17.2-22.4,18.1c-5.9,1.1-10.8-1-17.1-7.5c-6.4-6.5-8.2-11.3-6.6-17.4c0.4-1.6,1.1-3.6,1.6-4.4c0.5-0.8,7.7-8.2,16.1-16.7l15.3-15.4l14.1,14.1l14.1,14.1L84.8,186.3z"/></g></g></g>
</svg>