<svg xmlns="http://www.w3.org/2000/svg" xmlns:xlink="http://www.w3.org/1999/xlink" version="1.1" x="0px" y="0px" 
viewBox="0 0 66 82.5" style="enable-background:new 0 0 66 66;" xml:space="preserve">
<g>
<path d="M25.7,22.3h31.6c0.5,0,1-0.4,1-1s-0.4-1-1-1H25.7c-0.5,0-1,0.4-1,1S25.2,22.3,25.7,22.3z"/>
<path d="M25.7,16h20.8c0.5,0,1-0.4,1-1c0-0.5-0.4-1-1-1H25.7c-0.5,0-1,0.4-1,1C24.7,15.6,25.2,16,25.7,16z"/>
<path d="M57.3,26.7H30.5c-0.5,0-1,0.4-1,1s0.4,1,1,1h26.7c0.5,0,1-0.4,1-1S57.8,26.7,57.3,26.7z"/>
<path d="M25.7,9.7h20.8c0.5,0,1-0.4,1-1c0-0.5-0.4-1-1-1H25.7c-0.5,0-1,0.4-1,1C24.7,9.3,25.2,9.7,25.7,9.7z"/>
<path d="M3.2,39.8C4,41.2,5.6,42,7.3,41.7l2.1,3.9c0.9,1.6,2.9,2.1,4.4,1.1c1.3-0.9,1.8-2.7,1-4.2l-1.9-3.6   c1.3-0.6,2.5-1.6,5.2-2.2v6.9c0,2.5,2,4.5,4.5,4.5h3.7c-0.2,3.8,1.2,7.2,3.7,9.9l-1.3,5.9c-0.2,0.7,0.5,1.3,1.2,1.1l8.3-2.2   c10.8,2.8,21.5-4.4,21.5-14.1c0-0.2,0-0.4,0-0.6h1.1c2.5,0,4.5-2,4.5-4.5V13.9c0-0.7-0.3-0.7-12.1-12.6C52.6,1.1,52.3,1,52.1,1   H22.4C19.9,1,18,3,18,5.4v13.9c-0.6-0.7-1.5-0.4-1.7,0.3c-2.5,8-9.5,9.3-13.3,11.9c-1.8,1-2.5,3.2-1.5,5L3.2,39.8z M13,43.4   c0.3,0.6,0.2,1.3-0.3,1.6c-0.6,0.4-1.3,0.2-1.6-0.4l-2-3.7l2-1.1L13,43.4z M38.3,60.8c-0.2,0-0.3,0-0.5,0l-7,1.9l1.1-4.8   c0.1-0.3,0-0.7-0.3-0.9c-8.1-8.2-1.5-21.1,11.2-21.1c8.1,0,14.8,5.7,14.8,12.8C57.6,57.3,47.8,63.5,38.3,60.8z M53.1,4.3l8.6,8.6   h-6.1c-1.4,0-2.5-1.1-2.5-2.5V4.3z M22.4,2.9h28.8v7.5c0,2.4,2,4.4,4.4,4.4h7.5v28.7c0,1.4-1.1,2.5-2.5,2.5h-1.3   c-1.4-6.9-8.2-12.2-16.5-12.2c-8.2,0-15.1,5.3-16.5,12.2h-3.9c-1.4,0-2.5-1.1-2.5-2.5v-7.3c1.9-0.2,3.8,0,5.6,0.5   c0.8,0.2,1.6-0.6,1.2-1.4L24.3,31c1.5-1.3,1.9-3.5,1-5.3c-1-1.8-3-2.6-4.9-2.1l-0.4-0.7V5.4C19.9,4.1,21,2.9,22.4,2.9z M23.3,29.2   l-2-3.8c0.9-0.1,1.8,0.4,2.3,1.2C23.9,27.4,23.9,28.4,23.3,29.2z M17.3,22.1c5.7,10.5,0.7,1.4,6.6,12.4c-3.2-0.5-6.5,0-9.5,1.3   L11,29.3C13.8,27.6,16,25.1,17.3,22.1z M3.9,33.2l5.4-2.9l3.5,6.4c-1.2,0.6-5.7,3.1-5.4,2.9c-0.8,0.5-1.9,0.1-2.4-0.7l-1.8-3.3   C2.7,34.7,3,33.6,3.9,33.2z"/>
<path d="M34,44.4h7.3c0.5,0,1-0.4,1-1c0-0.5-0.4-1-1-1H34c-0.5,0-1,0.4-1,1C33.1,44,33.5,44.4,34,44.4z"/>
<path d="M51.5,47.6H34c-0.5,0-1,0.4-1,1c0,0.5,0.4,1,1,1h17.5c0.5,0,1-0.4,1-1C52.5,48.1,52,47.6,51.5,47.6z"/>
<path d="M51.5,52.8H34c-0.5,0-1,0.4-1,1c0,0.5,0.4,1,1,1h17.5c0.5,0,1-0.4,1-1C52.5,53.2,52,52.8,51.5,52.8z"/>
</g>
</svg>