<?xml version="1.0" encoding="utf-8"?>
<!-- Svg Vector Icons : http://www.onlinewebfonts.com/icon -->
<!DOCTYPE svg PUBLIC "-//W3C//DTD SVG 1.1//EN" "http://www.w3.org/Graphics/SVG/1.1/DTD/svg11.dtd">
<svg version="1.1" xmlns="http://www.w3.org/2000/svg" xmlns:xlink="http://www.w3.org/1999/xlink" x="0px" y="0px" viewBox="0 0 256 256" enable-background="new 0 0 256 256" xml:space="preserve">
<metadata> Svg Vector Icons : http://www.onlinewebfonts.com/icon </metadata>
<g><g><g><path fill="#000000" d="M17.1,24c-2.6,0.9-4.8,2.9-6,5.3L10,31.6l0.1,73.7l0.2,73.7l1.5,2.1c0.8,1.2,2.4,2.6,3.7,3.4l2.2,1.3l46.3,0.2l46.3,0.1v1.3c0,2.6-2.2,9.7-4.5,14.4c-3.2,6.7-6.2,10.8-12.7,17.5c-5.4,5.5-5.6,5.8-5.6,8c0,1.8,0.3,2.6,1.5,3.8l1.4,1.5H128h37.8l1.4-1.5c1.2-1.2,1.5-1.9,1.5-3.8c0-2.2-0.2-2.5-5.6-8c-6.6-6.7-9.5-10.8-12.7-17.5c-2.3-4.7-4.5-11.9-4.5-14.4V186l46.3-0.1c42.2-0.2,46.4-0.2,47.9-1c2.4-1.3,4.9-4.1,5.5-6.2c0.3-1.2,0.5-26.3,0.4-75.1l-0.2-73.2l-1.6-2.3c-0.8-1.2-2.5-2.7-3.7-3.3l-2.1-1.1l-109.9-0.1C52.8,23.5,18.2,23.7,17.1,24z M237.2,32.3c1,1,1,1.7,1,72.2c0,48-0.2,71.5-0.5,72.1c-0.6,1-2.3,1-109.6,1s-109.1,0-109.6-1c-0.4-0.7-0.5-24.2-0.5-72.4V32.9l1.2-0.8c1-0.7,12.3-0.8,109.1-0.8C235.4,31.3,236.1,31.3,237.2,32.3z M137.7,187.4c0.2,0.8,0.4,2.5,0.6,3.8c1.4,9.3,7.7,21.6,15.7,30.3l3,3.3h-29H99.1l3.3-3.6c7-7.8,12.1-17.2,14.4-26.1c0.7-2.8,1.3-5.6,1.3-6.2c0-2.9-0.1-2.9,10-2.9h9.3L137.7,187.4z"/><path fill="#000000" d="M23.1,104.7v67.7H128H233v-67.7V37H128H23.1V104.7z M224.6,104.7v59.8H128H31.5v-59.8V44.9H128h96.5L224.6,104.7L224.6,104.7z"/><path fill="#000000" d="M43.6,107.3v48.8h82.6h82.6v-3.9v-3.9h-75.6H57.5l13-13l13-13h4.1c3.5,0,4.4-0.2,6-1.3c1-0.7,2.3-1.9,2.8-2.7l0.9-1.4l10.4,2.6c8.4,2.1,10.5,2.8,10.7,3.6c0.2,0.6,0.9,1.7,1.7,2.6c4.9,5.9,14.5,4.5,17.7-2.6c0.8-1.8,3.1-3.5,20-14.8l19.1-12.7h4.4c3.8,0,4.5-0.2,6.5-1.5c2.4-1.7,4.8-5.9,4.8-8.4c0-3.1-1.1-5.7-3.4-7.9c-7.2-7.2-18.7-1.6-18,8.8l0.2,3L154,101c-13.6,9-17.4,11.3-17.7,10.8c-0.2-0.4-1.5-1.4-2.9-2.2c-4.5-2.7-9.8-1.8-13.5,2.3l-1.7,1.9l-10-2.5l-10-2.5l-1.4-2.2c-0.7-1.2-2.2-2.7-3.3-3.5c-1.6-1.1-2.5-1.3-6-1.3c-3.7,0-4.2,0.1-6.1,1.6c-1.1,0.9-2.5,2.5-3.2,3.7c-1.1,1.7-1.2,2.6-1,5.8l0.2,3.7l-13.1,13.1l-13,13v-42.1V58.5h-3.9h-3.9V107.3z M183.6,83.4c1.2,1.4,0.5,3.7-1.2,4.3c-1.3,0.4-1.6,0.3-2.5-0.7c-1.2-1.5-1.3-2.4-0.2-3.4C180.8,82.5,182.8,82.4,183.6,83.4z M89.6,110.1c0.4,0.4,0.6,1.3,0.6,2s-0.3,1.6-0.6,2c-1.5,1.5-4.6,0.1-4.6-2S88.2,108.6,89.6,110.1z M130,116.9c1.4,1.4,0,4.6-2,4.6c-2.1,0-3.4-3.1-1.9-4.6c0.4-0.4,1.3-0.6,2-0.6C128.8,116.3,129.7,116.5,130,116.9z"/></g></g></g>
</svg>