<?xml version="1.0" encoding="utf-8"?>
<!-- Svg Vector Icons : http://www.onlinewebfonts.com/icon -->
<!DOCTYPE svg PUBLIC "-//W3C//DTD SVG 1.1//EN" "http://www.w3.org/Graphics/SVG/1.1/DTD/svg11.dtd">
<svg version="1.1" xmlns="http://www.w3.org/2000/svg" xmlns:xlink="http://www.w3.org/1999/xlink" x="0px" y="0px" viewBox="0 0 256 256" enable-background="new 0 0 256 256" xml:space="preserve">
<metadata> Svg Vector Icons : http://www.onlinewebfonts.com/icon </metadata>
<g><g><g><path fill="#000000" d="M152.8,10.1c-3.9,0.8-7.1,1.7-7.1,2.1c0,0.2,0.7,0.9,1.6,1.6c1.5,1.2,1.8,1.2,5.3,0.6c2.2-0.4,5.9-0.5,8.9-0.3c4.7,0.3,5.5,0.2,7-0.8c1-0.7,1.8-1.3,1.8-1.6C170.3,10.5,157.6,9.3,152.8,10.1z"/><path fill="#000000" d="M177,14.6c-6.3,1.3-11.7,6.5-13,12.4c-0.4,2.2-1.3,2.3-5.8,0.4c-3.9-1.6-9.3-5.3-12.1-8.4c-1.5-1.8-2.4-2.2-3.7-2.2c-2.6,0-3.6,0.8-4.9,3.8c-1.3,2.9-1.3,3.3-1.2,17.2c0,2.7,1.5,6.9,3.1,8.7c0.5,0.5,1,1.8,1.1,2.6c0.2,2.2,1.9,5.4,3.7,7.1c0.8,0.8,1.4,1.5,1.4,1.8c0,0.2-2.1,0.4-4.7,0.4c-4.3,0-4.8,0.1-6,1.4c-1.5,1.5-1.8,3.8-0.5,5.5c1,1.4,7.7,4.8,12.1,6c1.8,0.5,5.8,1,8.8,1.2c7.4,0.4,13.2-0.7,20-4.1c4.4-2.1,5.9-3.2,9.9-7.2c2.6-2.6,5.5-6.1,6.5-7.8c2.5-4.3,4.9-11.4,5.3-16.1c0.4-3.6,0.5-4,3.3-7.2c3.6-4.2,4.1-5.7,2.5-7.9c-0.7-0.9-1.1-1.8-0.9-2.1c0.6-0.9-0.8-3.7-2.2-4.4c-1.9-0.8-2.5-0.8-5.7,0.7l-2.8,1.3l-3.1-1.6C184.5,14.5,180.5,13.9,177,14.6z M184.6,19.2c1.3,0.5,2.9,1.4,3.6,2c1.4,1.3,3.4,1.1,6.9-0.7c1.2-0.6,2.2-1,2.4-1c0.5,0-1.5,3.5-2.9,5c-1.6,1.8-1.2,1.9,2.1,0.7c1.3-0.4,2.5-0.7,2.6-0.6c0.1,0.1-1.1,1.6-2.8,3.3l-3,3.1l-0.5,4.9c-1.2,9.3-4.3,15.8-10.7,22.3c-7,7.1-14.4,10.1-24.7,10.1c-6.4,0-10.5-0.9-15.9-3.6l-3.8-1.8l3-0.1c3.8-0.1,8.5-1.3,12.1-3.1c2.9-1.4,3.5-2.5,1.6-2.5c-1.9,0-5.2-2-7.3-4.3c-2.6-2.9-2.7-4.3-0.5-4c2.2,0.3,2.6-0.5,0.7-1.4c-3.6-1.8-6.2-5.3-6.9-9.3l-0.3-2.2l2.1,0.7c2.9,1,4.1,1,2.5,0c-1.8-1.3-3.9-5.2-4.3-8c-0.3-2.4,0.5-6.7,1.4-7.3c0.2-0.2,1.8,1,3.5,2.6c5.5,5.1,12.9,8.7,19.7,9.5l3,0.3V31C167.8,22.2,176.3,16.3,184.6,19.2z"/><path fill="#000000" d="M130.1,22.2c-4.6,4.9-8.1,11.4-9.8,18.1c-1,3.9-1,13.6,0,17.5c2.5,10,8.8,19,17.2,24.3l3.1,2l-0.4,2.6c-0.2,1.4-1,7.2-1.8,12.8c-0.8,5.7-1.4,10.3-1.4,10.3c0.1,0,4.1-4.8,9-10.7l8.9-10.7h3.1c16.9,0,31.9-10.5,37.5-26.1c0.8-2,1.5-4.8,1.7-6.2c0.2-1.4,0.5-3.2,0.7-4.1c0.2-1.3-0.1-0.9-1.5,1.6c-1,1.8-2.4,4.1-3.1,5c-0.7,1-2.2,3.8-3.5,6.3c-1.7,3.4-3.3,5.6-6.4,8.7c-7,7-15.4,10.4-25.5,10.4h-5l-4.8,5.8c-2.7,3.2-4.8,5.5-4.8,5.1c0-0.4,0.4-3.1,0.8-6c1.2-7.8,1.3-7.3-2.6-9.4C134.5,75.9,128,67.9,125,59c-1.5-4.3-1.5-15.5,0-19.7c1.3-3.8,3.3-8,5-10.3c0.7-0.9,1.3-2.2,1.3-2.7c0-0.5,0.3-2.3,0.8-3.9c0.4-1.6,0.7-2.9,0.6-2.9C132.7,19.5,131.5,20.7,130.1,22.2z"/><path fill="#000000" d="M109.9,72c-2,1.3-3.2,3.5-3.6,6.7c-0.3,2.6-0.6,3-5.6,7.8c-9.2,8.9-18.6,15-27.7,18c-3.5,1.1-5.2,1.3-20.3,1.5c-16.3,0.3-16.5,0.3-19.5,1.8c-3.8,1.8-6.9,4.9-8.7,8.7c-1.3,2.9-1.4,3.5-1.4,11.2v8.2l1.9,3.5c3.4,6.3,8.8,9.9,15.4,10.4l3.6,0.2l2.6,14.6c1.8,10.4,2.9,15,3.6,16c3.6,4.9,10.1,5.2,14,0.6c2.2-2.7,2.2-4.4-0.2-17.8c-1.2-6.8-2.2-12.6-2.2-12.9c0-0.8,4-0.7,8.3,0.2c9.3,2,19.7,8.3,29.7,17.9c6.1,5.8,6.2,6.1,6.6,8.8c0.6,5.2,3.7,8.2,7.5,7.4c2.1-0.4,4.3-2.7,5-5.2c0.3-1.1,0.5-8.6,0.5-16.9v-15l2.1-1c7.3-3.7,12.2-13.8,10.6-22.1c-1.2-6.5-5.5-12.7-10.6-15.2l-2.1-1.1l-0.2-16c-0.2-14.6-0.3-16.2-1.2-17.8C116,71.3,112.7,70.2,109.9,72z M114.3,76.8c0.9,2,0.9,100.5,0,102.5c-0.8,1.8-2.3,1.8-3.1,0c-0.8-1.8-0.9-100.3-0.1-102.5C111.7,75,113.4,75,114.3,76.8z M106.2,128.1v40.6l-4.9-4.7c-8.7-8.2-18.5-14.1-28-16.9c-3.7-1.1-5.8-1.2-20.3-1.5c-15.6-0.3-16.2-0.4-18.2-1.6c-2.6-1.6-5.3-4.7-6.5-7.5c-0.8-1.8-1-3.6-1-9.1c0-7.7,0.7-9.9,3.9-13.1c3.6-3.7,4.7-3.9,19.7-3.9c15.2,0,20.3-0.6,27.2-3.3c7.8-3.1,16.3-8.7,23.9-15.8c2.1-2.1,4-3.8,4.1-3.8C106.1,87.5,106.2,105.7,106.2,128.1z M123.1,116c7.2,7.4,6.4,19.4-1.8,25.8l-2.1,1.7v-15.1c0-10.4,0.2-15.1,0.6-15.1C120.2,113.3,121.7,114.5,123.1,116z M57.4,150.1c0,0.1,1,5.8,2.2,12.7c1.2,6.9,2.2,12.9,2.2,13.5c0,1.8-2.4,4-4.3,4c-3.6,0-4.1-1.2-6.6-15.5c-1.3-7.1-2.4-13.3-2.5-13.9c-0.2-0.8,0.3-0.9,4.4-0.9C55.3,150,57.4,150,57.4,150.1z"/><path fill="#000000" d="M187.7,85.8c-3.3,1.8-5,4.5-5.3,8.4c-0.1,2.5,0.1,3.8,0.9,5.4c0.9,1.6,0.9,2.1,0.3,2.1c-0.7,0-0.8,3.6-0.8,22.2v22.2h19.5h19.5l0.1-13.2c0.2-12.1,0.3-13.3,1.2-13.9c0.8-0.5,1.2-0.4,1.8,0.4c0.6,0.9,0.8,3.6,0.8,13.9v12.8h10.2H246l-0.2-15.8l-0.2-15.7l-1.5-3.3c-1.8-3.7-4.7-7-7.6-8.5c-3-1.6-8-2.3-11.4-1.6c-2.6,0.5-23.1,0.8-23.1,0.4c0-0.1,0.4-1,0.9-2.1c1.2-2.3,1.2-6.8,0-9c-1.1-2.1-3.6-4.4-5.5-5.2C195,84.4,190,84.6,187.7,85.8z M196.3,89.4c6.2,3,3.8,11.8-3.2,11.8c-7,0-9.2-9-2.9-11.8C192.5,88.4,194.1,88.4,196.3,89.4z M235.4,107.1c2,1.3,3,2.4,4.5,5.3l1.9,3.8v12.7v12.7l-5.9,0.2l-5.9,0.2v-9.8c-0.1-5.4-0.3-10.9-0.5-12.2c-0.7-3.2-2.6-5.2-5.4-5.2c-2.7,0-4.3,0.9-5.6,3.1c-1,1.6-1.1,2.9-1.1,12.8v11.1h-6h-6v-17.8v-17.8h6h6v2.2v2.2l1.6-1.7C223,104.6,230.2,103.8,235.4,107.1z M199.3,123.9v17.8h-6h-6v-17.8v-17.8h6h6V123.9z"/><path fill="#000000" d="M207.8,90.3c0.2,1,0.5,2,0.8,2.2c0.2,0.2,2.1,0.6,4.2,1c2.1,0.4,5.3,1.3,7.1,2c2.8,1.2,3.8,1.3,6.8,0.9l3.5-0.4l-3-1.6c-5.9-3.3-10.4-4.8-16.6-5.5l-3.2-0.4L207.8,90.3z"/><path fill="#000000" d="M175.9,103.9c-3.5,4.6-6.2,10.7-7.5,16.4c-0.3,1.3-1.1,1.6-11,4.4c-5.9,1.6-10.7,3.1-10.7,3.3c0,0.2,4.8,1.6,10.7,3.3c9.9,2.8,10.7,3.1,11,4.4c0.7,3.3,3.2,9.6,4.9,12.6c5.1,8.7,14.5,15.6,24.9,18.1c3.9,1,13.6,1,17.5,0c7.7-1.9,15-6.2,20.3-12l3.3-3.7l-2.5-0.2c-2.5-0.2-2.7,0-6.1,3.1c-3.7,3.4-8.8,6.4-13.9,8.1c-2.4,0.8-4.6,1-10.1,1c-6.4,0-7.5-0.2-11.2-1.5c-11.8-4.5-20.2-14.1-22.8-26l-0.9-4.3l-4.8-1.3c-2.7-0.7-4.9-1.5-4.9-1.6c0-0.2,2.2-0.9,4.9-1.6l4.8-1.3l0.9-4.4c0.6-2.6,1.9-6.2,3.4-9c2.1-4.2,2.4-5.2,2.3-7.8l-0.2-3L175.9,103.9z"/><path fill="#000000" d="M17.1,116.4c-4.6,2.4-7.1,6.5-7.1,11.7c0,4.2,1.3,7.1,4.2,9.6c2,1.8,5.2,3.3,5.7,2.8c0.6-0.6-1.2-4.6-2.7-5.8c-2.1-1.8-3.1-3.9-3.1-6.6c0-2.7,0.6-3.9,3-6.6c1.9-2.1,3.5-6,2.4-6C19,115.5,18,115.9,17.1,116.4z"/><path fill="#000000" d="M138.8,158.6c1,6.9,1.9,12.7,1.9,12.9c0,0.2-1.7,1.5-3.8,2.9c-6.9,4.6-12.8,12.3-15.4,20c-7.3,22.1,5.6,45.4,28.5,51.1c3.9,1,13.6,1,17.5,0c12.5-3.1,22.8-11.8,27.6-23.4c2.1-5.2,2.9-8.8,2.9-15c0-8.2-1.9-14.6-6.1-21.3c-2-3.2-6.6-8.3-7.4-8.3c-0.3,0-0.5,1.1-0.5,2.5c0,2.1,0.4,3,2.2,5.3c11.1,14.1,9.9,33.8-2.8,46.5c-18.9,18.9-49.7,11.1-58.4-14.8c-0.8-2.4-1-4.5-1-10.1c0-6.4,0.2-7.5,1.5-11.2c3.1-8.2,8.6-14.8,15.8-19c4.2-2.4,4-1.9,2.9-9.5c-0.4-2.9-0.8-5.5-0.8-6c0-0.4,2,1.6,4.4,4.5l4.4,5.2l2.2-1.4c1.9-1.3,2-1.5,1.2-1.9c-0.5-0.2-4.9-5.1-9.7-10.9c-4.8-5.8-8.8-10.5-8.8-10.5C137.1,146.1,137.8,151.7,138.8,158.6z"/><path fill="#000000" d="M161.9,170.9c-6.6,1.5-10.8,7.3-10.8,14.9v2.6h-2.7h-2.7v8.8v8.8h2.7h2.7v13.7v13.7h9.9h9.9l0.1-13.6l0.2-13.5l3.4-0.2c3.8-0.2,3.6,0.2,4.5-7c0.7-5.6,0.8-8.3,0.7-19.6l-0.1-9.2l-7.8,0.1C167.5,170.4,163.1,170.6,161.9,170.9z M175.2,179.3v4.6l-3.6,0.2c-2.3,0.2-3.8,0.5-4.1,1c-0.3,0.4-0.5,2.3-0.5,4.2v3.5h4.2h4.2l-0.3,4.2c-0.2,2.3-0.5,4.4-0.7,4.7c-0.2,0.3-1.9,0.5-3.8,0.5H167v13.4v13.4h-5.8h-5.8v-13.4v-13.4h-2.7H150v-4.7v-4.7h2.7h2.7v-5.2c0-5.6,0.5-7.5,2.4-9.6c2.3-2.5,5.1-3.3,11.5-3.3h5.9L175.2,179.3L175.2,179.3z"/></g></g></g>
</svg>